<svg width="19" height="20" viewBox="0 0 19 20" fill="none" xmlns="http://www.w3.org/2000/svg">
<path fill-rule="evenodd" clip-rule="evenodd" d="M13.3957 20H5.60431C4.11562 19.9942 2.68991 19.3996 1.63948 18.3466C0.589044 17.2937 -0.000490361 15.8682 6.09551e-06 14.3823V5.61728C-0.00218572 4.13085 0.586802 2.70444 1.6376 1.65114C2.6884 0.597848 4.11509 0.00411996 5.60431 0H13.3957C14.8849 0.00411996 16.3116 0.597848 17.3624 1.65114C18.4132 2.70444 19.0022 4.13085 19 5.61728V14.3823C19.0005 15.8682 18.411 17.2937 17.3605 18.3466C16.3101 19.3996 14.8844 19.9942 13.3957 20ZM5.92879 1.79321C4.82093 1.79708 3.75986 2.23919 2.97846 3.02307C2.19706 3.80696 1.75915 4.86843 1.76086 5.97422V14.053C1.75915 15.1588 2.19706 16.2203 2.97846 17.0042C3.75986 17.7881 4.82093 18.2302 5.92879 18.234H13.096C14.2037 18.2299 15.2645 17.7876 16.0457 17.0037C16.8269 16.2199 17.2647 15.1587 17.263 14.053V5.97422C17.2647 4.86858 16.8269 3.80738 16.0457 3.02352C15.2645 2.23966 14.2037 1.79732 13.096 1.79321H5.92879ZM9.544 14.913C8.2375 14.9079 6.98633 14.386 6.06481 13.4615C5.14329 12.5371 4.62663 11.2855 4.62809 9.98146C4.62954 9.3153 4.76348 8.65626 5.02217 8.04217C5.28085 7.42808 5.65912 6.87147 6.13504 6.40443C6.58675 5.96072 7.12374 5.61254 7.71369 5.3814C8.30363 5.15027 8.93434 5.04077 9.56783 5.0593C10.249 5.04939 10.9251 5.17613 11.5561 5.43233C12.1871 5.68853 12.76 6.06883 13.2408 6.55051C14.0886 7.4938 14.5267 8.73435 14.459 9.99978C14.4368 11.2991 13.9158 12.5403 13.0034 13.4674C12.5525 13.9267 12.014 14.2913 11.4197 14.5395C10.8254 14.7878 10.1873 14.9148 9.54308 14.913H9.544ZM9.43217 6.77031C8.64257 6.77365 7.88572 7.08541 7.32391 7.63921C7.012 7.94484 6.76404 8.30931 6.59441 8.71138C6.42478 9.11346 6.33687 9.54519 6.33578 9.98146C6.31501 10.4151 6.38281 10.8484 6.53506 11.2551C6.68731 11.6618 6.92083 12.0336 7.22142 12.3474C7.52201 12.6612 7.8834 12.9109 8.28362 13.0809C8.68385 13.251 9.11454 13.3381 9.54952 13.3369C9.9845 13.3357 10.4147 13.2461 10.8139 13.0738C11.2132 12.9014 11.5731 12.6495 11.8719 12.334C12.1707 12.0184 12.4021 11.6457 12.552 11.2381C12.7019 10.8306 12.7672 10.3967 12.744 9.96314C12.7861 8.02352 11.5798 6.83435 9.51558 6.77031H9.42942H9.43217ZM15.712 4.61123C15.7113 4.85101 15.6394 5.08499 15.5054 5.28401C15.3714 5.48304 15.1813 5.63815 14.9592 5.72941C14.737 5.82067 14.4927 5.84409 14.2572 5.79687C14.0217 5.74964 13.8054 5.63386 13.6358 5.46405C13.4662 5.29424 13.3508 5.07787 13.3042 4.84264C13.2576 4.6074 13.2819 4.36362 13.374 4.14215C13.4661 3.92068 13.6219 3.73162 13.8217 3.59847C14.0215 3.46533 14.2563 3.39431 14.4966 3.39431C14.6565 3.39419 14.8149 3.42563 14.9627 3.48679C15.1105 3.54794 15.2447 3.6373 15.3576 3.75036C15.4705 3.86343 15.56 3.99761 15.6208 4.14528C15.6816 4.29295 15.7126 4.45157 15.712 4.61123Z" fill="white"/>
</svg>
