<svg width="19" height="11" viewBox="0 0 19 11" fill="none" xmlns="http://www.w3.org/2000/svg">
<path fill-rule="evenodd" clip-rule="evenodd" d="M16.3403 6.98466C16.9933 7.59096 17.6145 8.23195 18.2011 8.90498C18.4575 9.20335 18.6808 9.5296 18.8667 9.87796C18.9334 9.97367 18.9758 10.0848 18.9898 10.2013C19.0039 10.3178 18.9893 10.4359 18.9474 10.5453C18.9054 10.6546 18.8375 10.7515 18.7496 10.8274C18.6617 10.9033 18.5566 10.9557 18.4438 10.98H15.6789C15.3496 11.0053 15.019 10.9523 14.7133 10.8253C14.4076 10.6983 14.135 10.501 13.917 10.2484C13.5356 9.84367 13.1803 9.42134 12.8116 9.008C12.6635 8.83701 12.4966 8.68406 12.3142 8.55178C12.2439 8.48991 12.1599 8.44597 12.0695 8.42396C11.9791 8.40194 11.8848 8.40244 11.7946 8.42522C11.7043 8.448 11.6208 8.49267 11.5509 8.55514C11.4811 8.61761 11.427 8.69613 11.3931 8.7843C11.1979 9.19486 11.0984 9.64554 11.1022 10.1017C11.1253 10.2238 11.1184 10.35 11.0819 10.4687C11.0455 10.5875 10.9807 10.6954 10.8934 10.7824C10.8061 10.8694 10.699 10.9329 10.5816 10.9674C10.4642 11.002 10.3403 11.0062 10.2208 10.98C8.84722 11.0837 7.47338 10.7819 6.26414 10.1105C5.21033 9.46105 4.30302 8.59249 3.60153 7.56156C2.21218 5.56218 1.03687 3.41708 0.0956438 1.16317C-0.125113 0.663709 0.0364428 0.388431 0.578607 0.37982C1.48193 0.362597 2.38441 0.371208 3.2852 0.37982C3.45413 0.383154 3.61772 0.440614 3.7526 0.544226C3.88748 0.647838 3.98676 0.792239 4.03628 0.956713C4.51452 2.18443 5.1304 3.35186 5.87168 4.43574C6.0553 4.73437 6.29024 4.99681 6.56525 5.21067C6.61752 5.26829 6.68444 5.31011 6.7586 5.33135C6.83276 5.3526 6.91125 5.35234 6.98536 5.33093C7.05947 5.30953 7.12631 5.26756 7.17846 5.20983C7.23061 5.15211 7.26603 5.08078 7.2808 5.0038C7.37064 4.76964 7.42428 4.52264 7.43982 4.27175C7.52319 3.42042 7.50872 2.56233 7.39668 1.71441C7.38062 1.47315 7.28363 1.24487 7.12196 1.06772C6.96028 0.890573 6.74373 0.775421 6.50858 0.741429C6.24468 0.689761 6.28359 0.586122 6.41131 0.431118C6.50596 0.293355 6.63289 0.182117 6.78059 0.10693C6.92829 0.0317435 7.09208 -0.00501439 7.25712 0.000549756H10.3824C10.4803 0.0104474 10.5753 0.040204 10.6619 0.0875884C10.7486 0.134973 10.8252 0.199187 10.8874 0.276803C10.9495 0.354418 10.996 0.443639 11.0242 0.539601C11.0523 0.635562 11.0616 0.736423 11.0514 0.836037V4.38402C11.0429 4.5606 11.079 4.73617 11.1563 4.89448C11.2336 5.05278 11.3495 5.18837 11.4929 5.28804C11.6155 5.30786 11.7412 5.28885 11.8527 5.23338C11.9642 5.17791 12.0563 5.08879 12.1163 4.97815C12.8358 4.1516 13.4294 3.21984 13.8773 2.21394C14.0879 1.77476 14.2706 1.31809 14.4474 0.861686C14.4897 0.708449 14.5837 0.57553 14.7128 0.48578C14.842 0.39603 14.998 0.355329 15.1536 0.37099H18.1622C18.2513 0.368112 18.3405 0.373896 18.4286 0.388229C18.5262 0.379109 18.6243 0.398032 18.7118 0.442891C18.7994 0.48775 18.8728 0.556542 18.9237 0.641776C18.9747 0.727011 19.0011 0.825413 19 0.925178C18.9989 1.02494 18.9703 1.12243 18.9175 1.20648C18.6324 1.97324 18.2283 2.68843 17.7206 3.32484C17.2191 4.03958 16.6837 4.72824 16.1846 5.43437C16.0746 5.53637 15.9895 5.66326 15.9364 5.80481C15.8832 5.94635 15.8634 6.09892 15.8785 6.24967C15.8937 6.40043 15.9433 6.54543 16.0235 6.67309C16.1037 6.80076 16.2122 6.90745 16.3403 6.98466V6.98466Z" fill="white"/>
</svg>
